HIERARCHY
ROOT Hips
{
  OFFSET 10.9364 103.218 144.966
  CHANNELS 6 Xposition Yposition Zposition Zrotation Xrotation Yrotation
  JOINT RightUpLeg
  {
    OFFSET -8.9458 -8.66707 0.101652
    CHANNELS 3 Zrotation Xrotation Yrotation
    JOINT RightLeg
    {
      OFFSET 0 -44.4227 1.3727
      CHANNELS 3 Zrotation Xrotation Yrotation
      JOINT RightFoot
      {
        OFFSET 0.253549 -42.0924 -1.46059
        CHANNELS 3 Zrotation Xrotation Yrotation
        JOINT RightToes
        {
          OFFSET 0.04 -4.41509 8.4991
          CHANNELS 3 Zrotation Xrotation Yrotation
          End Site
          {
            OFFSET -0.08 -0.137448 9.77979
          }
        }
      }
    }
  }
  JOINT Spine
  {
    OFFSET 0 11.8905 0
    CHANNELS 3 Zrotation Xrotation Yrotation
    JOINT Spine1
    {
      OFFSET 0 25.6574 0.127663
      CHANNELS 3 Zrotation Xrotation Yrotation
      JOINT HEad
      {
        OFFSET 0 8.73416 0.011341
        CHANNELS 3 Zrotation Xrotation Yrotation
        End Site
        {
          OFFSET -0.29 12.7742 2.51395
        }
      }
      JOINT LeftShoulder1
      {
        OFFSET 8.99 -0.362252 -0.22
        CHANNELS 3 Zrotation Xrotation Yrotation
        JOINT LeftArm
        {
          OFFSET 10.2827 -0.00338 0.322123
          CHANNELS 3 Zrotation Xrotation Yrotation
          JOINT LeftForeArm
          {
            OFFSET 32.7669 0.099144 -1.42434
            CHANNELS 3 Zrotation Xrotation Yrotation
            JOINT LeftHand
            {
              OFFSET 27.5643 0.085362 1.02216
              CHANNELS 3 Zrotation Xrotation Yrotation
              End Site
              {
                OFFSET 16.7443 -0.6 1.50291
              }
            }
          }
        }
      }
      JOINT RightShoulder
      {
        OFFSET -8.99 -0.362252 -0.22
        CHANNELS 3 Zrotation Xrotation Yrotation
        JOINT RightArm
        {
          OFFSET -10.2827 -0.00338 0.322123
          CHANNELS 3 Zrotation Xrotation Yrotation
          JOINT RightForeArm
          {
            OFFSET -32.8971 0.099144 -1.42434
            CHANNELS 3 Zrotation Xrotation Yrotation
            JOINT RightHand
            {
              OFFSET -27.4921 0.085362 1.02216
              CHANNELS 3 Zrotation Xrotation Yrotation
              End Site
              {
                OFFSET -16.6312 -0.6 1.50291
              }
            }
          }
        }
      }
    }
  }
  JOINT LeftUpLeg
  {
    OFFSET 8.9458 -8.66707 0.101652
    CHANNELS 3 Zrotation Xrotation Yrotation
    JOINT LeftLeg
    {
      OFFSET 0 -44.4227 1.3727
      CHANNELS 3 Zrotation Xrotation Yrotation
      JOINT LeftFoot
      {
        OFFSET -0.253549 -42.0924 -1.46059
        CHANNELS 3 Zrotation Xrotation Yrotation
        JOINT LeftToes
        {
          OFFSET -0.04 -4.41509 8.4991
          CHANNELS 3 Zrotation Xrotation Yrotation
          End Site
          {
            OFFSET 0.08 -0.047448 9.77979
          }
        }
      }
    }
  }
}
MOTION
Frames:	19
Frame Time:	0.0166667
4.18202 101.587 -8.56363 0.698697 1.03338 174.327 4.99498 8.55863 -5.56651 -8.79759 29.6854 4.59422 2.52685 -17.5235 0.107984 2.96391 -20.0639 7.10086 2.07752 2.70688 0.990827 5.76379 -4.46128 0.139905 1.57257 -0.287219 2.79023 -2.18663e-015 3.97569e-016 -0 -58.1859 -55.4703 35.5404 -19.3707 14.2596 -13.965 0.368473 9.90896 -0.00117926 -9.69018 -0.00298457 7.11467 98.7199 -24.727 22.3873 21.3364 14.5625 13.2449 -0.369625 9.91382 0.00119886 1.38696 -17.9908 -7.45795 -0.00189021 4.25964 44.7004 -16.5702 13.276 2.51536 16.3867 -1.38552 10.846 
3.86305 101.834 -10.7493 0.0546147 1.11924 174.375 3.94358 8.30848 -5.79095 -9.4112 31.6821 4.83653 2.97556 -15.5641 0.122404 8.43241 -10.1289 10.4929 1.70998 2.78659 0.813442 4.88867 -5.11934 0.136559 1.94558 0.775569 2.80899 5.46658e-016 7.95139e-016 -2.38542e-015 -57.4173 -55.3618 35.7015 -19.4565 14.251 -13.8764 0.368473 9.90896 -0.00117926 -9.10849 0.0528618 7.31702 98.0422 -25.2142 21.0797 21.7333 14.5428 13.0846 -0.369625 9.91382 0.00119886 0.455041 -17.9398 -10.4162 -1.16331 6.36738 46.4677 -15.7314 11.939 2.23024 14.9245 -1.22523 9.86257 
3.52714 102.096 -12.8981 -0.670649 1.21981 174.444 2.78263 7.44775 -5.71247 -10.0618 34.4463 4.97526 3.51293 -13.0724 0.110424 12.5447 2.06724 13.0058 1.38006 2.87303 0.629851 3.93989 -5.65412 0.122155 2.2627 1.67365 2.85189 -4.96962e-016 0 -7.95139e-016 -57.3127 -55.1992 34.995 -19.5829 14.2161 -13.639 0.368473 9.90896 -0.00117926 -8.72907 0.0897679 7.53474 97.7601 -25.806 19.9975 21.8895 14.4422 12.5513 -0.369625 9.91382 0.00119886 -0.66866 -17.8155 -12.8862 -2.42989 8.61843 47.8542 -15.2312 9.31107 1.79475 13.9687 -2.47487 8.98089 
3.18009 102.27 -15.0373 -1.39038 1.50911 174.773 1.58858 6.14941 -5.86717 -11.0963 37.7885 5.57683 4.02877 -9.07834 0.0237238 15.0211 13.3138 13.0389 1.09628 2.97995 0.45288 3.01654 -5.91538 0.0936693 2.42485 2.35489 2.68593 4.47266e-016 -7.95139e-016 -7.95139e-016 -58.2371 -54.8959 33.0352 -19.6524 14.1468 -13.2503 0.368473 9.90896 -0.00117926 -8.72326 0.0905989 7.59903 97.9624 -26.56 19.1253 21.759 14.2498 11.6254 -0.369625 9.91382 0.00119886 -2.0152 -17.0843 -13.2853 -2.86137 10.171 47.4123 -15.115 7.56755 1.55306 13.3392 -2.32799 8.59317 
2.8298 102.401 -17.0763 -2.12422 1.86089 175.038 0.444454 4.39076 -5.94202 -12.4755 41.6628 6.90802 4.62696 -4.78275 -0.102072 15.9103 21.2446 11.5858 0.771562 3.09988 0.309471 2.16709 -5.88396 0.0621049 2.47212 2.68278 2.5698 1.04362e-015 -7.95139e-016 -7.95139e-016 -59.8658 -54.5095 30.3364 -19.734 14.0933 -12.9682 0.368473 9.90896 -0.00117926 -8.98328 0.0656606 7.61159 98.5671 -27.2969 18.6075 21.393 14.01 10.4852 -0.369625 9.91382 0.00119886 -3.40927 -16.1243 -12.7944 -2.89038 11.4651 46.3515 -15.2758 5.91593 1.35554 13.0765 -2.13361 8.45721 
2.47961 102.485 -18.8962 -2.90729 2.23516 174.931 -0.532134 2.16142 -5.89708 -14.7396 46.0241 10.3656 5.59527 -0.757329 -0.2842 12.7698 20.1292 8.51277 0.245939 3.24683 0.244073 1.46523 -5.36632 0.0377964 2.39098 2.34877 2.75381 -1.49089e-016 0 -7.95139e-016 -62.1459 -54.138 27.2075 -19.8688 14.1221 -13.1535 0.368473 9.90896 -0.00117926 -9.555 0.0101003 7.61415 99.7053 -27.7875 18.7215 20.7776 13.7632 9.26513 -0.369625 9.91382 0.00119886 -4.72858 -15.1138 -11.9826 -2.76168 12.5514 45.4388 -15.6601 4.21967 1.16291 13.2883 -2.43243 8.53155 
2.14901 102.571 -20.6091 -3.57816 2.54502 174.643 -1.28068 -0.411436 -5.46081 -17.5999 50.4267 13.9651 6.23154 2.08063 -0.425467 7.67369 15.6146 4.65572 -0.25486 3.37016 0.217076 0.935749 -4.73531 0.0199028 2.22752 1.81626 3.03173 -1.49089e-016 7.95139e-016 -7.95139e-016 -64.7099 -53.6226 23.8129 -20.0491 14.1799 -13.4948 0.368473 9.90896 -0.00117926 -10.1495 -0.0478449 7.61777 100.892 -28.2184 19.0706 20.0823 13.5251 8.07217 -0.369625 9.91382 0.00119886 -5.85521 -14.025 -11.0923 -2.55676 13.2883 44.6768 -16.1783 2.68457 0.995272 13.5422 -2.85002 8.6053 
1.85575 102.726 -22.2913 -3.95182 2.66482 174.209 -1.57158 -3.26361 -4.0581 -19.3559 54.9325 14.5792 5.65288 2.18816 -0.394723 2.48081 11.9439 0.234038 -0.493889 3.40406 0.199668 0.664438 -4.33076 0.012414 1.97327 1.50401 3.30228 -9.93923e-017 7.95139e-016 7.95139e-016 -67.12 -52.8956 20.4959 -20.3008 14.2343 -13.7877 0.368473 9.90896 -0.00117926 -10.4841 -0.0808518 7.68807 101.622 -28.6892 19.3321 19.5029 13.3412 7.10782 -0.369625 9.91382 0.00119886 -6.50642 -12.8855 -10.6499 -2.50055 13.4372 44.479 -16.7213 1.52789 0.865161 13.2713 -3.21178 8.33545 
1.60839 102.893 -23.9316 -4.1544 2.67237 173.786 -1.5105 -6.23538 -2.53167 -20.3964 59.0424 13.8229 4.59636 0.871147 -0.302911 -2.23125 8.28831 -3.41197 -0.664172 3.40801 0.203876 0.539232 -4.05829 0.0108879 1.76113 1.23671 3.50091 -4.96962e-017 -3.97569e-016 -7.95139e-016 -69.4536 -51.9091 17.1286 -20.5636 14.2897 -14.0714 0.368473 9.90896 -0.00117926 -10.5856 -0.0910034 7.7031 102.025 -29.2434 19.5395 18.9706 13.1788 6.21715 -0.369625 9.91382 0.00119886 -6.90364 -11.758 -10.3295 -2.46045 13.3223 44.4127 -17.2847 0.57874 0.75532 12.9715 -3.46116 8.07437 
1.43482 103.04 -25.5429 -4.238 2.5738 173.57 -1.34049 -9.16673 -1.65925 -21.449 62.0527 12.7358 3.49103 -1.20595 -0.215223 -3.89696 5.33847 -4.28808 -0.887761 3.42931 0.235211 0.478396 -4.00435 0.0121083 1.76818 0.942592 3.50576 3.47873e-016 0 7.95139e-016 -71.5693 -50.5167 13.7238 -20.7986 14.3381 -14.3037 0.368473 9.90896 -0.00117926 -10.3437 -0.0658824 7.5624 102.026 -30.0183 19.5926 18.4626 13.0114 5.27613 -0.369625 9.91382 0.00119886 -7.16661 -10.7409 -9.91501 -2.3452 13.2053 44.1052 -17.8384 -0.225082 0.658774 13.0515 -3.34251 8.15661 
1.29475 103.165 -27.1291 -4.2394 2.45943 173.469 -1.05742 -11.9561 -1.07084 -22.0603 64.1724 11.3789 2.42135 -3.66201 -0.140159 -4.54421 2.93992 -4.49284 -1.14017 3.43862 0.284388 0.477472 -3.96634 0.0159273 1.84798 0.729435 3.38773 -5.96354e-016 0 -7.95139e-016 -73.5549 -48.9232 10.302 -20.9684 14.3848 -14.5239 0.368473 9.90896 -0.00117926 -9.88754 -0.0216333 7.26722 101.727 -30.8374 19.5697 18.0228 12.8576 4.39682 -0.369625 9.91382 0.00119886 -7.36239 -9.73999 -9.61072 -2.2059 13.0742 43.8077 -18.3615 -0.992678 0.559264 13.2287 -3.27582 8.29315 
1.15767 103.256 -28.7003 -4.21529 2.43305 173.471 -0.691661 -14.4362 -0.693606 -22.5256 65.3685 10.6982 1.62989 -5.85889 -0.117507 -5.83809 1.27217 -5.40157 -1.46412 3.41643 0.348847 0.498108 -3.75336 0.0200097 1.91855 0.765405 3.14297 -1.49089e-016 -3.97569e-016 -0 -75.5644 -47.2685 6.76413 -21.0141 14.426 -14.7267 0.368473 9.90896 -0.00117926 -9.25401 0.0349598 6.7553 101.166 -31.567 19.5349 17.686 12.7224 3.60406 -0.369625 9.91382 0.00119886 -7.59939 -8.70276 -9.60784 -2.07453 13.0512 43.6835 -18.8351 -1.923 0.427319 13.4662 -3.81037 8.33202 
1.02216 103.322 -30.2506 -4.15235 2.45961 173.535 -0.301766 -16.6544 -0.426931 -22.5332 65.7191 10.2269 1.03716 -7.90305 -0.117869 -7.67812 -0.0511614 -6.94122 -1.77976 3.38051 0.413903 0.559881 -3.41667 0.0220261 1.97301 0.798025 2.87337 -2.98177e-016 3.97569e-016 -0 -77.5097 -45.602 3.25216 -20.9603 14.4798 -15.0036 0.368473 9.90896 -0.00117926 -8.60799 0.0883675 6.11678 100.471 -32.2114 19.423 17.4619 12.6245 3.03416 -0.369625 9.91382 0.00119886 -7.83619 -7.61045 -9.72737 -1.90626 13.0081 43.6189 -19.2327 -2.80882 0.296027 13.4353 -4.30265 8.19786 
0.87254 103.371 -31.7688 -4.05702 2.56149 173.592 0.106125 -18.593 -0.122502 -21.7631 65.2805 9.93166 0.626329 -9.65086 -0.130431 -11.1043 -1.72482 -9.98403 -2.01729 3.3443 0.46204 0.671224 -2.88324 0.0205188 1.95189 0.576868 2.71884 -2.48481e-017 3.97569e-016 -1.59028e-015 -79.4707 -44.0674 -0.208452 -20.7978 14.5665 -15.4689 0.368473 9.90896 -0.00117926 -8.18307 0.115499 5.41806 99.8553 -32.6748 19.2535 17.3597 12.579 2.79807 -0.369625 9.91382 0.00119886 -8.0982 -6.37949 -9.86557 -1.62989 12.7959 43.6261 -19.4903 -3.40117 0.207194 12.7293 -4.12702 7.75524 
0.721157 103.404 -33.2806 -3.92883 2.67032 173.714 0.457495 -20.2807 0.164535 -20.1732 64.0715 9.18515 0.463936 -11.2145 -0.139086 -14.5701 -2.6022 -13.0868 -2.18955 3.3013 0.499208 0.827922 -2.33505 0.0173039 1.92028 0.263456 2.56183 -1.2424e-016 1.98785e-016 7.95139e-016 -81.3383 -42.5829 -3.54169 -20.5645 14.6713 -16.0511 0.368473 9.90896 -0.00117926 -7.81434 0.131711 4.66801 99.0879 -33.122 18.8314 17.419 12.6042 2.99596 -0.369625 9.91382 0.00119886 -8.32836 -5.14535 -9.99707 -1.36115 12.5944 43.4941 -19.6902 -4.02419 0.105389 11.5547 -3.7768 7.02724 
0.567097 103.435 -34.8169 -3.76923 2.71734 173.957 0.653819 -21.7516 0.477401 -17.6033 62.117 7.2815 0.657608 -12.7385 -0.120885 -16.1581 -1.20813 -14.8077 -2.25998 3.24957 0.523205 1.0375 -1.96344 0.0135107 1.89032 -0.0808986 2.33329 -2.48481e-017 3.97569e-016 -7.95139e-016 -83.0068 -41.1338 -6.63484 -20.2966 14.7866 -16.7186 0.368473 9.90896 -0.00117926 -7.41458 0.144979 3.88716 97.9528 -33.7232 17.8915 17.7067 12.7354 3.88096 -0.369625 9.91382 0.00119886 -8.48671 -3.99694 -10.0523 -1.20718 12.5124 42.9187 -19.9428 -5.03381 -0.0736282 9.99959 -3.78815 5.93188 
0.434518 103.432 -36.3505 -3.57801 2.72591 174.299 0.76208 -22.9729 0.665977 -14.825 59.365 5.09735 1.07747 -13.9826 -0.083866 -16.994 0.543116 -15.9712 -2.30697 3.18888 0.540969 1.27289 -1.66729 0.0091822 1.96086 -0.406012 2.02738 -6.08778e-016 -1.98785e-016 -0 -84.5475 -39.7116 -9.5628 -19.9903 14.9113 -17.4654 0.368473 9.90896 -0.00117926 -6.98322 0.154504 3.10697 96.5721 -34.3539 16.642 18.1299 12.9231 5.10965 -0.369625 9.91382 0.00119886 -8.57339 -2.98604 -10.056 -1.12733 12.6029 42.1853 -20.118 -6.08563 -0.262717 7.99093 -3.40857 4.64707 
0.361421 103.36 -37.8525 -3.34191 2.69669 174.788 0.793557 -23.9149 0.541747 -12.3132 55.7592 3.02656 1.6821 -14.7069 -0.0207869 -18.1806 0.92393 -17.1674 -2.42161 3.11513 0.559145 1.49679 -1.37968 0.00389371 2.33749 -0.624433 1.5747 -8.94531e-016 -9.93923e-017 -0 -85.9968 -38.257 -12.3922 -19.6331 15.0439 -18.2898 0.368473 9.90896 -0.00117926 -6.42967 0.162472 2.30963 94.931 -34.9012 15.1681 18.6756 13.1429 6.4696 -0.369625 9.91382 0.00119886 -8.548 -2.25224 -10.0231 -1.13732 13.0567 41.4738 -20.0686 -6.93154 -0.410183 5.21274 -1.61092 3.22831 
0.305361 103.253 -39.3589 -3.09903 2.62867 175.282 0.774092 -24.6041 0.244046 -10.2949 51.427 1.31106 2.30847 -15.0551 0.0445248 -18.6134 1.0356 -17.585 -2.52903 3.03811 0.576403 1.74746 -1.18934 0.000179933 2.71671 -0.786358 1.09655 -1.73937e-016 -9.93923e-017 7.95139e-016 -87.2965 -36.8937 -14.9937 -19.2871 15.1781 -19.1468 0.368473 9.90896 -0.00117926 -5.93652 0.16798 1.66349 93.2664 -35.4973 13.5944 19.1805 13.362 7.81909 -0.369625 9.91382 0.00119886 -8.48801 -1.62158 -9.90941 -1.13991 13.6089 40.8013 -19.9314 -7.63886 -0.531848 2.7063 0.256712 1.98006 
